<svg width="42" height="42" viewBox="0 0 42 42" fill="none" xmlns="http://www.w3.org/2000/svg">
<path d="M32.8125 5.25H13.125C12.429 5.25069 11.7617 5.52748 11.2696 6.01961C10.7775 6.51174 10.5007 7.17902 10.5 7.875V26.9797C9.70559 26.5071 8.79937 26.2552 7.875 26.25C6.83665 26.25 5.82162 26.5579 4.95826 27.1348C4.0949 27.7117 3.42199 28.5316 3.02463 29.4909C2.62727 30.4502 2.52331 31.5058 2.72588 32.5242C2.92845 33.5426 3.42847 34.4781 4.16269 35.2123C4.89692 35.9465 5.83238 36.4466 6.85078 36.6491C7.86918 36.8517 8.92478 36.7477 9.88409 36.3504C10.8434 35.953 11.6633 35.2801 12.2402 34.4167C12.8171 33.5534 13.125 32.5384 13.125 31.5V15.75H32.8125V26.9797C32.0181 26.5071 31.1119 26.2551 30.1875 26.25C29.1492 26.25 28.1341 26.5579 27.2708 27.1348C26.4074 27.7117 25.7345 28.5316 25.3371 29.4909C24.9398 30.4502 24.8358 31.5058 25.0384 32.5242C25.241 33.5426 25.741 34.4781 26.4752 35.2123C27.2094 35.9465 28.1449 36.4466 29.1633 36.6491C30.1817 36.8517 31.2373 36.7477 32.1966 36.3504C33.1559 35.953 33.9758 35.2801 34.5527 34.4167C35.1296 33.5534 35.4375 32.5384 35.4375 31.5V7.875C35.4368 7.17902 35.16 6.51174 34.6679 6.01961C34.1758 5.52748 33.5085 5.25069 32.8125 5.25ZM7.875 34.125C7.35583 34.125 6.84831 33.971 6.41663 33.6826C5.98495 33.3942 5.6485 32.9842 5.44982 32.5045C5.25114 32.0249 5.19915 31.4971 5.30044 30.9879C5.40173 30.4787 5.65173 30.011 6.01885 29.6438C6.38596 29.2767 6.85369 29.0267 7.36289 28.9254C7.87209 28.8242 8.39989 28.8761 8.87955 29.0748C9.3592 29.2735 9.76917 29.6099 10.0576 30.0416C10.346 30.4733 10.5 30.9808 10.5 31.5C10.4993 32.196 10.2225 32.8633 9.73039 33.3554C9.23826 33.8475 8.57098 34.1243 7.875 34.125ZM30.1875 34.125C29.6683 34.125 29.1608 33.971 28.7291 33.6826C28.2975 33.3942 27.961 32.9842 27.7623 32.5045C27.5636 32.0249 27.5117 31.4971 27.6129 30.9879C27.7142 30.4787 27.9642 30.011 28.3313 29.6438C28.6985 29.2767 29.1662 29.0267 29.6754 28.9254C30.1846 28.8242 30.7124 28.8761 31.192 29.0748C31.6717 29.2735 32.0817 29.6099 32.3701 30.0416C32.6585 30.4733 32.8125 30.9808 32.8125 31.5C32.8115 32.1959 32.5346 32.8629 32.0425 33.355C31.5505 33.8471 30.8834 34.124 30.1875 34.125ZM13.125 7.875H32.8125V13.125H13.125V7.875Z" fill="black"/>
</svg>
